<svg width="331" height="35" viewBox="0 0 331 35" fill="none" xmlns="http://www.w3.org/2000/svg">
<path d="M30.625 2.1875C31.2052 2.1875 31.7616 2.41797 32.1718 2.8282C32.582 3.23844 32.8125 3.79484 32.8125 4.375V30.625C32.8125 31.2052 32.582 31.7616 32.1718 32.1718C31.7616 32.582 31.2052 32.8125 30.625 32.8125H4.375C3.79484 32.8125 3.23844 32.582 2.8282 32.1718C2.41797 31.7616 2.1875 31.2052 2.1875 30.625V4.375C2.1875 3.79484 2.41797 3.23844 2.8282 2.8282C3.23844 2.41797 3.79484 2.1875 4.375 2.1875H30.625ZM4.375 0C3.21468 0 2.10188 0.460936 1.28141 1.28141C0.460936 2.10188 0 3.21468 0 4.375V30.625C0 31.7853 0.460936 32.8981 1.28141 33.7186C2.10188 34.5391 3.21468 35 4.375 35H30.625C31.7853 35 32.8981 34.5391 33.7186 33.7186C34.5391 32.8981 35 31.7853 35 30.625V4.375C35 3.21468 34.5391 2.10188 33.7186 1.28141C32.8981 0.460936 31.7853 0 30.625 0H4.375Z" fill="#051C51"/>
<path d="M23.9969 10.8718C24.303 10.5684 24.7163 10.3976 25.1473 10.3964C25.5784 10.3952 25.9926 10.5637 26.3004 10.8655C26.6082 11.1673 26.7849 11.5781 26.7923 12.0091C26.7996 12.4401 26.637 12.8566 26.3397 13.1687L17.6072 24.0843C17.4571 24.246 17.276 24.3757 17.0746 24.4658C16.8732 24.5558 16.6558 24.6043 16.4352 24.6084C16.2147 24.6125 15.9956 24.5721 15.791 24.4895C15.5865 24.407 15.4006 24.2841 15.2447 24.1281L9.45874 18.34C9.29755 18.1898 9.16826 18.0086 9.07859 17.8074C8.98892 17.6062 8.94071 17.3889 8.93682 17.1686C8.93293 16.9483 8.97346 16.7295 9.05597 16.5252C9.13849 16.3209 9.2613 16.1354 9.41709 15.9796C9.57288 15.8238 9.75846 15.701 9.96274 15.6185C10.167 15.5359 10.3858 15.4954 10.6061 15.4993C10.8264 15.5032 11.0437 15.5514 11.2449 15.6411C11.4462 15.7307 11.6273 15.86 11.7775 16.0212L16.3581 20.5997L23.9553 10.92C23.9689 10.903 23.9835 10.8869 23.9991 10.8718H23.9969Z" fill="#051C51"/>
<path d="M76.5156 5.35938V7.05664H68.9746V21H66.9121V5.35938H76.5156ZM78.5352 11.6113V25.4688H76.5371V9.37695H78.3633L78.5352 11.6113ZM86.3662 15.0918V15.3174C86.3662 16.1624 86.266 16.9466 86.0654 17.6699C85.8649 18.3861 85.5713 19.0091 85.1846 19.5391C84.805 20.069 84.3359 20.4808 83.7773 20.7744C83.2188 21.068 82.5778 21.2148 81.8545 21.2148C81.1169 21.2148 80.4652 21.0931 79.8994 20.8496C79.3337 20.6061 78.8538 20.2516 78.46 19.7861C78.0661 19.3206 77.751 18.762 77.5146 18.1104C77.2855 17.4587 77.1279 16.7246 77.042 15.9082V14.7051C77.1279 13.8457 77.2891 13.0758 77.5254 12.3955C77.7617 11.7152 78.0732 11.1351 78.46 10.6553C78.8538 10.1683 79.3301 9.79948 79.8887 9.54883C80.4473 9.29102 81.0918 9.16211 81.8223 9.16211C82.5527 9.16211 83.2008 9.30534 83.7666 9.5918C84.3324 9.87109 84.8086 10.2721 85.1953 10.7949C85.582 11.3177 85.8721 11.9443 86.0654 12.6748C86.266 13.3981 86.3662 14.2038 86.3662 15.0918ZM84.3682 15.3174V15.0918C84.3682 14.5117 84.3073 13.9674 84.1855 13.459C84.0638 12.9434 83.874 12.4922 83.6162 12.1055C83.3656 11.7116 83.0433 11.4036 82.6494 11.1816C82.2555 10.9525 81.7865 10.8379 81.2422 10.8379C80.7409 10.8379 80.304 10.9238 79.9316 11.0957C79.5664 11.2676 79.2549 11.5003 78.9971 11.7939C78.7393 12.0804 78.528 12.4098 78.3633 12.7822C78.2057 13.1475 78.0876 13.527 78.0088 13.9209V16.7031C78.152 17.2044 78.3525 17.6771 78.6104 18.1211C78.8682 18.5579 79.2119 18.9124 79.6416 19.1846C80.0713 19.4495 80.612 19.582 81.2637 19.582C81.8008 19.582 82.2627 19.471 82.6494 19.249C83.0433 19.0199 83.3656 18.7083 83.6162 18.3145C83.874 17.9206 84.0638 17.4694 84.1855 16.9609C84.3073 16.4453 84.3682 15.8975 84.3682 15.3174ZM92.0381 19.7969L95.2715 9.37695H97.3984L92.7363 22.7939C92.6289 23.0804 92.4857 23.3883 92.3066 23.7178C92.1348 24.0544 91.9128 24.373 91.6406 24.6738C91.3685 24.9746 91.0391 25.2181 90.6523 25.4043C90.2728 25.5977 89.818 25.6943 89.2881 25.6943C89.1305 25.6943 88.93 25.6729 88.6865 25.6299C88.443 25.5869 88.2712 25.5511 88.1709 25.5225L88.1602 23.9111C88.2174 23.9183 88.307 23.9255 88.4287 23.9326C88.5576 23.9469 88.6471 23.9541 88.6973 23.9541C89.1484 23.9541 89.5316 23.8932 89.8467 23.7715C90.1618 23.6569 90.4268 23.46 90.6416 23.1807C90.8636 22.9085 91.0534 22.5326 91.2109 22.0527L92.0381 19.7969ZM89.6641 9.37695L92.6826 18.4004L93.1982 20.4951L91.7695 21.2256L87.4941 9.37695H89.6641ZM103.532 15.4463H101.395V14.2217H103.371C103.923 14.2217 104.359 14.1536 104.682 14.0176C105.004 13.8743 105.233 13.6774 105.369 13.4268C105.505 13.1761 105.573 12.8825 105.573 12.5459C105.573 12.2451 105.494 11.9622 105.337 11.6973C105.187 11.4251 104.943 11.2067 104.606 11.042C104.27 10.8701 103.819 10.7842 103.253 10.7842C102.795 10.7842 102.379 10.8665 102.007 11.0312C101.634 11.1888 101.337 11.4072 101.115 11.6865C100.9 11.9587 100.793 12.2666 100.793 12.6104H98.8057C98.8057 11.9014 99.0062 11.2926 99.4072 10.7842C99.8154 10.2686 100.356 9.87109 101.029 9.5918C101.71 9.3125 102.451 9.17285 103.253 9.17285C103.926 9.17285 104.528 9.24805 105.058 9.39844C105.595 9.54167 106.049 9.75651 106.422 10.043C106.794 10.3223 107.077 10.6732 107.271 11.0957C107.471 11.5111 107.571 11.9945 107.571 12.5459C107.571 12.9398 107.478 13.3122 107.292 13.6631C107.106 14.014 106.837 14.3255 106.486 14.5977C106.135 14.8626 105.709 15.0703 105.208 15.2207C104.714 15.3711 104.155 15.4463 103.532 15.4463ZM101.395 14.6943H103.532C104.227 14.6943 104.839 14.7624 105.369 14.8984C105.899 15.0273 106.343 15.2207 106.701 15.4785C107.059 15.7363 107.328 16.055 107.507 16.4346C107.693 16.807 107.786 17.2367 107.786 17.7236C107.786 18.2679 107.675 18.7585 107.453 19.1953C107.238 19.625 106.93 19.9902 106.529 20.291C106.128 20.5918 105.648 20.821 105.09 20.9785C104.538 21.1361 103.926 21.2148 103.253 21.2148C102.501 21.2148 101.771 21.0859 101.062 20.8281C100.353 20.5703 99.7689 20.1729 99.3105 19.6357C98.8522 19.0915 98.623 18.4004 98.623 17.5625H100.61C100.61 17.9134 100.721 18.2464 100.943 18.5615C101.165 18.8766 101.473 19.1309 101.867 19.3242C102.268 19.5176 102.73 19.6143 103.253 19.6143C103.812 19.6143 104.277 19.5283 104.649 19.3564C105.022 19.1846 105.301 18.9554 105.487 18.6689C105.681 18.3825 105.777 18.071 105.777 17.7344C105.777 17.2975 105.691 16.9466 105.52 16.6816C105.348 16.4167 105.083 16.2233 104.725 16.1016C104.374 15.9727 103.923 15.9082 103.371 15.9082H101.395V14.6943ZM109.838 15.3174V15.0703C109.838 14.2324 109.96 13.4554 110.203 12.7393C110.447 12.016 110.798 11.3893 111.256 10.8594C111.714 10.3223 112.269 9.9069 112.921 9.61328C113.573 9.3125 114.303 9.16211 115.112 9.16211C115.929 9.16211 116.663 9.3125 117.314 9.61328C117.973 9.9069 118.532 10.3223 118.99 10.8594C119.456 11.3893 119.81 12.016 120.054 12.7393C120.297 13.4554 120.419 14.2324 120.419 15.0703V15.3174C120.419 16.1553 120.297 16.9323 120.054 17.6484C119.81 18.3646 119.456 18.9912 118.99 19.5283C118.532 20.0583 117.977 20.4736 117.325 20.7744C116.681 21.068 115.95 21.2148 115.134 21.2148C114.317 21.2148 113.583 21.068 112.932 20.7744C112.28 20.4736 111.721 20.0583 111.256 19.5283C110.798 18.9912 110.447 18.3646 110.203 17.6484C109.96 16.9323 109.838 16.1553 109.838 15.3174ZM111.825 15.0703V15.3174C111.825 15.8975 111.893 16.4453 112.029 16.9609C112.165 17.4694 112.369 17.9206 112.642 18.3145C112.921 18.7083 113.268 19.0199 113.684 19.249C114.099 19.471 114.582 19.582 115.134 19.582C115.678 19.582 116.154 19.471 116.562 19.249C116.978 19.0199 117.322 18.7083 117.594 18.3145C117.866 17.9206 118.07 17.4694 118.206 16.9609C118.349 16.4453 118.421 15.8975 118.421 15.3174V15.0703C118.421 14.4974 118.349 13.9567 118.206 13.4482C118.07 12.9326 117.862 12.4779 117.583 12.084C117.311 11.6829 116.967 11.3678 116.552 11.1387C116.144 10.9095 115.664 10.7949 115.112 10.7949C114.568 10.7949 114.088 10.9095 113.673 11.1387C113.265 11.3678 112.921 11.6829 112.642 12.084C112.369 12.4779 112.165 12.9326 112.029 13.4482C111.893 13.9567 111.825 14.4974 111.825 15.0703ZM130.656 9.37695V11.0205H124.78V9.37695H130.656ZM125.07 9.37695V21H123.083V9.37695H125.07ZM132.418 9.37695V21H130.42V9.37695H132.418ZM135.082 15.3174V15.0703C135.082 14.2324 135.204 13.4554 135.447 12.7393C135.691 12.016 136.042 11.3893 136.5 10.8594C136.958 10.3223 137.513 9.9069 138.165 9.61328C138.817 9.3125 139.547 9.16211 140.356 9.16211C141.173 9.16211 141.907 9.3125 142.559 9.61328C143.217 9.9069 143.776 10.3223 144.234 10.8594C144.7 11.3893 145.054 12.016 145.298 12.7393C145.541 13.4554 145.663 14.2324 145.663 15.0703V15.3174C145.663 16.1553 145.541 16.9323 145.298 17.6484C145.054 18.3646 144.7 18.9912 144.234 19.5283C143.776 20.0583 143.221 20.4736 142.569 20.7744C141.925 21.068 141.194 21.2148 140.378 21.2148C139.562 21.2148 138.827 21.068 138.176 20.7744C137.524 20.4736 136.965 20.0583 136.5 19.5283C136.042 18.9912 135.691 18.3646 135.447 17.6484C135.204 16.9323 135.082 16.1553 135.082 15.3174ZM137.069 15.0703V15.3174C137.069 15.8975 137.137 16.4453 137.273 16.9609C137.41 17.4694 137.614 17.9206 137.886 18.3145C138.165 18.7083 138.512 19.0199 138.928 19.249C139.343 19.471 139.826 19.582 140.378 19.582C140.922 19.582 141.398 19.471 141.807 19.249C142.222 19.0199 142.566 18.7083 142.838 18.3145C143.11 17.9206 143.314 17.4694 143.45 16.9609C143.593 16.4453 143.665 15.8975 143.665 15.3174V15.0703C143.665 14.4974 143.593 13.9567 143.45 13.4482C143.314 12.9326 143.106 12.4779 142.827 12.084C142.555 11.6829 142.211 11.3678 141.796 11.1387C141.388 10.9095 140.908 10.7949 140.356 10.7949C139.812 10.7949 139.332 10.9095 138.917 11.1387C138.509 11.3678 138.165 11.6829 137.886 12.084C137.614 12.4779 137.41 12.9326 137.273 13.4482C137.137 13.9567 137.069 14.4974 137.069 15.0703ZM149.477 9.37695H151.464L151.292 13.7275C151.249 14.8304 151.124 15.7829 150.916 16.585C150.708 17.387 150.443 18.071 150.121 18.6367C149.799 19.1953 149.437 19.6644 149.036 20.0439C148.642 20.4235 148.234 20.7422 147.812 21H146.823L146.877 19.3779L147.285 19.3672C147.521 19.0879 147.751 18.8014 147.973 18.5078C148.195 18.207 148.399 17.8525 148.585 17.4443C148.771 17.029 148.925 16.5241 149.047 15.9297C149.176 15.3281 149.258 14.5941 149.294 13.7275L149.477 9.37695ZM149.971 9.37695H156.964V21H154.977V11.2139H149.971V9.37695ZM146.372 19.3672H158.457V24.4268H156.47V21H148.359V24.4268H146.361L146.372 19.3672ZM164.247 9.37695V11.0098H159.145V9.37695H164.247ZM164.054 13.373H167.545C168.483 13.373 169.274 13.5378 169.919 13.8672C170.563 14.1895 171.05 14.637 171.38 15.21C171.716 15.7757 171.885 16.4202 171.885 17.1436C171.885 17.6807 171.792 18.1855 171.605 18.6582C171.419 19.1237 171.14 19.5319 170.768 19.8828C170.402 20.2337 169.948 20.5094 169.403 20.71C168.866 20.9033 168.247 21 167.545 21H162.593V9.37695H164.591V19.3672H167.545C168.118 19.3672 168.573 19.2633 168.909 19.0557C169.253 18.848 169.5 18.5794 169.65 18.25C169.801 17.9206 169.876 17.5768 169.876 17.2188C169.876 16.8678 169.801 16.5241 169.65 16.1875C169.5 15.8509 169.253 15.5716 168.909 15.3496C168.573 15.1204 168.118 15.0059 167.545 15.0059H164.054V13.373ZM178.824 21.2148C178.015 21.2148 177.281 21.0788 176.622 20.8066C175.97 20.5273 175.408 20.137 174.936 19.6357C174.47 19.1344 174.112 18.54 173.861 17.8525C173.611 17.165 173.485 16.4131 173.485 15.5967V15.1455C173.485 14.2002 173.625 13.3587 173.904 12.6211C174.184 11.8763 174.563 11.2461 175.043 10.7305C175.523 10.2148 176.067 9.82454 176.676 9.55957C177.285 9.2946 177.915 9.16211 178.566 9.16211C179.397 9.16211 180.113 9.30534 180.715 9.5918C181.324 9.87826 181.821 10.2793 182.208 10.7949C182.595 11.3034 182.881 11.9049 183.067 12.5996C183.254 13.2871 183.347 14.0391 183.347 14.8555V15.7471H174.667V14.125H181.359V13.9746C181.331 13.459 181.223 12.9577 181.037 12.4707C180.858 11.9837 180.572 11.5827 180.178 11.2676C179.784 10.9525 179.247 10.7949 178.566 10.7949C178.115 10.7949 177.7 10.8916 177.32 11.085C176.941 11.2712 176.615 11.5505 176.343 11.9229C176.071 12.2952 175.859 12.75 175.709 13.2871C175.559 13.8242 175.483 14.4437 175.483 15.1455V15.5967C175.483 16.1481 175.559 16.6673 175.709 17.1543C175.867 17.6341 176.092 18.0566 176.386 18.4219C176.687 18.7871 177.048 19.0736 177.471 19.2812C177.9 19.4889 178.387 19.5928 178.932 19.5928C179.633 19.5928 180.228 19.4495 180.715 19.1631C181.202 18.8766 181.628 18.4935 181.993 18.0137L183.196 18.9697C182.946 19.3493 182.627 19.7109 182.24 20.0547C181.854 20.3984 181.377 20.6777 180.812 20.8926C180.253 21.1074 179.59 21.2148 178.824 21.2148ZM192.349 18.3574L196.302 9.37695H198.214L193.036 21H191.661L186.505 9.37695H188.417L192.349 18.3574ZM187.837 9.37695V21H185.85V9.37695H187.837ZM196.796 21V9.37695H198.794V21H196.796ZM209.88 14.415V16.0264H203.735V14.415H209.88ZM204.154 9.37695V21H202.167V9.37695H204.154ZM211.491 9.37695V21H209.493V9.37695H211.491ZM214.166 15.3174V15.0703C214.166 14.2324 214.288 13.4554 214.531 12.7393C214.775 12.016 215.126 11.3893 215.584 10.8594C216.042 10.3223 216.597 9.9069 217.249 9.61328C217.901 9.3125 218.631 9.16211 219.44 9.16211C220.257 9.16211 220.991 9.3125 221.643 9.61328C222.301 9.9069 222.86 10.3223 223.318 10.8594C223.784 11.3893 224.138 12.016 224.382 12.7393C224.625 13.4554 224.747 14.2324 224.747 15.0703V15.3174C224.747 16.1553 224.625 16.9323 224.382 17.6484C224.138 18.3646 223.784 18.9912 223.318 19.5283C222.86 20.0583 222.305 20.4736 221.653 20.7744C221.009 21.068 220.278 21.2148 219.462 21.2148C218.646 21.2148 217.911 21.068 217.26 20.7744C216.608 20.4736 216.049 20.0583 215.584 19.5283C215.126 18.9912 214.775 18.3646 214.531 17.6484C214.288 16.9323 214.166 16.1553 214.166 15.3174ZM216.153 15.0703V15.3174C216.153 15.8975 216.221 16.4453 216.357 16.9609C216.493 17.4694 216.698 17.9206 216.97 18.3145C217.249 18.7083 217.596 19.0199 218.012 19.249C218.427 19.471 218.91 19.582 219.462 19.582C220.006 19.582 220.482 19.471 220.891 19.249C221.306 19.0199 221.65 18.7083 221.922 18.3145C222.194 17.9206 222.398 17.4694 222.534 16.9609C222.677 16.4453 222.749 15.8975 222.749 15.3174V15.0703C222.749 14.4974 222.677 13.9567 222.534 13.4482C222.398 12.9326 222.19 12.4779 221.911 12.084C221.639 11.6829 221.295 11.3678 220.88 11.1387C220.472 10.9095 219.992 10.7949 219.44 10.7949C218.896 10.7949 218.416 10.9095 218.001 11.1387C217.593 11.3678 217.249 11.6829 216.97 12.084C216.698 12.4779 216.493 12.9326 216.357 13.4482C216.221 13.9567 216.153 14.4974 216.153 15.0703ZM231.891 19.582C232.363 19.582 232.8 19.4854 233.201 19.292C233.602 19.0986 233.932 18.8337 234.189 18.4971C234.447 18.1533 234.594 17.763 234.63 17.3262H236.521C236.485 18.0137 236.252 18.6546 235.822 19.249C235.4 19.8363 234.845 20.3125 234.157 20.6777C233.47 21.0358 232.714 21.2148 231.891 21.2148C231.017 21.2148 230.254 21.0609 229.603 20.7529C228.958 20.445 228.421 20.0225 227.991 19.4854C227.569 18.9482 227.25 18.3324 227.035 17.6377C226.827 16.9359 226.724 16.1947 226.724 15.4141V14.9629C226.724 14.1823 226.827 13.4447 227.035 12.75C227.25 12.0482 227.569 11.4287 227.991 10.8916C228.421 10.3545 228.958 9.93197 229.603 9.62402C230.254 9.31608 231.017 9.16211 231.891 9.16211C232.8 9.16211 233.595 9.34831 234.275 9.7207C234.956 10.0859 235.489 10.5872 235.876 11.2246C236.27 11.8548 236.485 12.571 236.521 13.373H234.63C234.594 12.8932 234.458 12.46 234.222 12.0732C233.993 11.6865 233.677 11.3786 233.276 11.1494C232.882 10.9131 232.421 10.7949 231.891 10.7949C231.282 10.7949 230.77 10.9167 230.354 11.1602C229.946 11.3965 229.62 11.7188 229.377 12.127C229.141 12.528 228.969 12.9756 228.861 13.4697C228.761 13.9567 228.711 14.4544 228.711 14.9629V15.4141C228.711 15.9225 228.761 16.4238 228.861 16.918C228.962 17.4121 229.13 17.8597 229.366 18.2607C229.61 18.6618 229.936 18.984 230.344 19.2275C230.759 19.4639 231.275 19.582 231.891 19.582ZM243.492 9.37695V21H241.494V9.37695H243.492ZM247.392 9.37695V10.9883H237.67V9.37695H247.392ZM250.979 13.373H254.471C255.409 13.373 256.2 13.5378 256.845 13.8672C257.489 14.1895 257.976 14.637 258.306 15.21C258.642 15.7757 258.811 16.4202 258.811 17.1436C258.811 17.6807 258.717 18.1855 258.531 18.6582C258.345 19.1237 258.066 19.5319 257.693 19.8828C257.328 20.2337 256.873 20.5094 256.329 20.71C255.792 20.9033 255.173 21 254.471 21H249.529V9.37695H251.517V19.3672H254.471C255.044 19.3672 255.502 19.2633 255.846 19.0557C256.189 18.848 256.437 18.5794 256.587 18.25C256.737 17.9206 256.812 17.5768 256.812 17.2188C256.812 16.8678 256.737 16.5241 256.587 16.1875C256.437 15.8509 256.189 15.5716 255.846 15.3496C255.502 15.1204 255.044 15.0059 254.471 15.0059H250.979V13.373ZM268.844 9.37695H270.831L270.659 13.7275C270.616 14.8304 270.491 15.7829 270.283 16.585C270.076 17.387 269.811 18.071 269.488 18.6367C269.166 19.1953 268.804 19.6644 268.403 20.0439C268.009 20.4235 267.601 20.7422 267.179 21H266.19L266.244 19.3779L266.652 19.3672C266.889 19.0879 267.118 18.8014 267.34 18.5078C267.562 18.207 267.766 17.8525 267.952 17.4443C268.138 17.029 268.292 16.5241 268.414 15.9297C268.543 15.3281 268.625 14.5941 268.661 13.7275L268.844 9.37695ZM269.338 9.37695H276.331V21H274.344V11.2139H269.338V9.37695ZM265.739 19.3672H277.824V24.4268H275.837V21H267.727V24.4268H265.729L265.739 19.3672ZM279.5 15.3174V15.0703C279.5 14.2324 279.622 13.4554 279.865 12.7393C280.109 12.016 280.46 11.3893 280.918 10.8594C281.376 10.3223 281.931 9.9069 282.583 9.61328C283.235 9.3125 283.965 9.16211 284.774 9.16211C285.591 9.16211 286.325 9.3125 286.977 9.61328C287.635 9.9069 288.194 10.3223 288.652 10.8594C289.118 11.3893 289.472 12.016 289.716 12.7393C289.959 13.4554 290.081 14.2324 290.081 15.0703V15.3174C290.081 16.1553 289.959 16.9323 289.716 17.6484C289.472 18.3646 289.118 18.9912 288.652 19.5283C288.194 20.0583 287.639 20.4736 286.987 20.7744C286.343 21.068 285.612 21.2148 284.796 21.2148C283.979 21.2148 283.245 21.068 282.594 20.7744C281.942 20.4736 281.383 20.0583 280.918 19.5283C280.46 18.9912 280.109 18.3646 279.865 17.6484C279.622 16.9323 279.5 16.1553 279.5 15.3174ZM281.487 15.0703V15.3174C281.487 15.8975 281.555 16.4453 281.691 16.9609C281.827 17.4694 282.032 17.9206 282.304 18.3145C282.583 18.7083 282.93 19.0199 283.346 19.249C283.761 19.471 284.244 19.582 284.796 19.582C285.34 19.582 285.816 19.471 286.225 19.249C286.64 19.0199 286.984 18.7083 287.256 18.3145C287.528 17.9206 287.732 17.4694 287.868 16.9609C288.011 16.4453 288.083 15.8975 288.083 15.3174V15.0703C288.083 14.4974 288.011 13.9567 287.868 13.4482C287.732 12.9326 287.524 12.4779 287.245 12.084C286.973 11.6829 286.629 11.3678 286.214 11.1387C285.806 10.9095 285.326 10.7949 284.774 10.7949C284.23 10.7949 283.75 10.9095 283.335 11.1387C282.927 11.3678 282.583 11.6829 282.304 12.084C282.032 12.4779 281.827 12.9326 281.691 13.4482C281.555 13.9567 281.487 14.4974 281.487 15.0703ZM308.063 19.3672V21H297.826V19.5713L302.95 13.8672C303.58 13.1654 304.067 12.571 304.411 12.084C304.762 11.5898 305.006 11.1494 305.142 10.7627C305.285 10.3688 305.356 9.96777 305.356 9.55957C305.356 9.04395 305.249 8.57845 305.034 8.16309C304.826 7.74056 304.519 7.40397 304.11 7.15332C303.702 6.90267 303.208 6.77734 302.628 6.77734C301.933 6.77734 301.353 6.91341 300.888 7.18555C300.429 7.45052 300.086 7.82292 299.856 8.30273C299.627 8.78255 299.513 9.33398 299.513 9.95703H297.525C297.525 9.07617 297.719 8.27051 298.105 7.54004C298.492 6.80957 299.065 6.22949 299.824 5.7998C300.583 5.36296 301.518 5.14453 302.628 5.14453C303.616 5.14453 304.461 5.31999 305.163 5.6709C305.865 6.01465 306.402 6.50163 306.774 7.13184C307.154 7.75488 307.344 8.48535 307.344 9.32324C307.344 9.78158 307.265 10.2471 307.107 10.7197C306.957 11.1852 306.746 11.6507 306.474 12.1162C306.209 12.5817 305.897 13.04 305.539 13.4912C305.188 13.9424 304.812 14.3864 304.411 14.8232L300.222 19.3672H308.063ZM320.6 9.37695V21H318.602V9.37695H320.6ZM324.499 9.37695V10.9883H314.777V9.37695H324.499ZM326.486 19.9473C326.486 19.6107 326.59 19.3278 326.798 19.0986C327.013 18.8623 327.321 18.7441 327.722 18.7441C328.123 18.7441 328.427 18.8623 328.635 19.0986C328.85 19.3278 328.957 19.6107 328.957 19.9473C328.957 20.2767 328.85 20.556 328.635 20.7852C328.427 21.0143 328.123 21.1289 327.722 21.1289C327.321 21.1289 327.013 21.0143 326.798 20.7852C326.59 20.556 326.486 20.2767 326.486 19.9473Z" fill="black"/>
</svg>
